<?xml version="1.0" encoding="UTF-8" standalone="no"?>
<svg width="702px" height="462px" viewBox="0 0 702 462" version="1.1" xmlns="http://www.w3.org/2000/svg" xmlns:xlink="http://www.w3.org/1999/xlink">
    <!-- Generator: Sketch 40.1 (33804) - http://www.bohemiancoding.com/sketch -->
    <title>Artboard 2</title>
    <desc>Created with Sketch.</desc>
    <defs></defs>
    <g id="Page-1" stroke="none" stroke-width="1" fill="none" fill-rule="evenodd">
        <g id="Artboard-2">
            <g id="Layer_1">
                <g id="Group">
                    <rect id="Rectangle-path" fill="#00AACC" x="80.1287794" y="32.584" width="616.145343" height="266.666667" rx="4.221"></rect>
                    <rect id="Rectangle-path" fill="#D91D4D" style="mix-blend-mode: darken;" x="0.208161059" y="0.584" width="610.817302" height="261.333333" rx="4.221"></rect>
                    <g transform="translate(363.969519, 58.666667)" fill="#FFFFFF">
                        <path d="M253.199175,179.266667 L26.2778993,179.266667 C12.0724633,179.249035 0.561073909,167.726212 0.543460204,153.506667 L0.543460204,26.344 C0.561073909,12.1244543 12.0724633,0.601631199 26.2778993,0.584 L253.199175,0.584 C267.404611,0.601631199 278.916,12.1244543 278.933614,26.344 L278.933614,153.490667 C278.924809,167.71646 267.410844,179.24902 253.199175,179.266667 L253.199175,179.266667 Z M26.2778993,8.6 C16.4839233,8.61175505 8.54726542,16.5562961 8.53552203,26.36 L8.53552203,153.506667 C8.54726542,163.310371 16.4839233,171.254912 26.2778993,171.266667 L253.199175,171.266667 C262.993151,171.254912 270.929809,163.310371 270.941552,153.506667 L270.941552,26.344 C270.929809,16.5402961 262.993151,8.59575505 253.199175,8.584 L26.2778993,8.6 Z" id="Shape"></path>
                        <g transform="translate(49.174146, 55.000000)" id="Oval">
                            <ellipse cx="35.355228" cy="34.9173333" rx="34.6322679" ry="34.6666667"></ellipse>
                            <ellipse cx="145.773554" cy="34.9173333" rx="34.6322679" ry="34.6666667"></ellipse>
                        </g>
                    </g>
                    <g transform="translate(142.635338, 66.888889)" id="Rectangle-path" fill="#FFFFFF">
                        <rect x="56.0423585" y="0.361777778" width="55.9444328" height="168"></rect>
                        <rect transform="translate(84.014575, 84.361778) rotate(-90.000000) translate(-84.014575, -84.361778) " x="56.0423585" y="0.361777778" width="55.9444328" height="168"></rect>
                    </g>
                </g>
                <g id="Group" transform="translate(0.000000, 343.000000)">
                    <path d="M18.8776175,70.8106667 L18.8776175,116.437333 L0.229473224,116.437333 L0.229473224,2.21866667 L32.4641226,2.21866667 C47.1908285,2.21866667 58.0920009,4.97955556 65.1676396,10.5013333 C72.5245429,16.6360598 76.4759408,25.9445701 75.7810977,35.504 C75.7810977,49.7262222 68.3928806,59.8595556 53.6164462,65.904 L85.8510956,116.453333 L64.6135233,116.453333 L37.296656,70.8266667 L18.8776175,70.8106667 Z M18.8776175,55.344 L31.8354137,55.344 C38.4971926,55.9128082 45.1549958,54.2058153 50.7233199,50.5013333 C54.8041026,46.8722513 56.9695537,41.5517739 56.5841652,36.1013333 C57.0694456,30.6751787 54.6670737,25.3936248 50.2597803,22.1973333 C44.4464645,18.9958348 37.8373668,17.5316521 31.217361,17.9786667 L18.8776175,17.9786667 L18.8776175,55.344 Z" id="Shape" fill="#FBB223"></path>
                    <polygon id="Shape" fill="#FBB223" points="162.942524 116.437333 98.3933047 116.437333 98.3933047 2.21866667 162.942524 2.21866667 162.942524 18 117.046777 18 117.046777 49.0933333 160.049398 49.0933333 160.049398 64.72 117.046777 64.72 117.046777 100.581333 162.942524 100.581333"></polygon>
                    <polygon id="Shape" fill="#FBB223" points="227.03886 116.437333 208.390716 116.437333 208.390716 18.2346667 174.824056 18.2346667 174.824056 2.23466667 260.60552 2.23466667 260.60552 18.2346667 227.03886 18.2346667"></polygon>
                    <path d="M296.713655,70.8106667 L296.713655,116.437333 L278.065511,116.437333 L278.065511,2.21866667 L310.30016,2.21866667 C325.026866,2.21866667 335.928038,4.97955556 343.003677,10.5013333 C350.36058,16.6360598 354.311978,25.9445701 353.617135,35.504 C353.617135,49.7262222 346.228918,59.8595556 331.452484,65.904 L363.687133,116.453333 L342.460217,116.453333 L315.14335,70.8266667 L296.713655,70.8106667 Z M296.713655,55.344 L309.671451,55.344 C316.33323,55.9128082 322.991033,54.2058153 328.559357,50.5013333 C332.64014,46.8722513 334.805591,41.5517739 334.420203,36.1013333 C334.905483,30.6751787 332.503111,25.3936248 328.095818,22.1973333 C322.282502,18.9958348 315.673404,17.5316521 309.053398,17.9786667 L296.724311,17.9786667 L296.713655,55.344 Z" id="Shape" fill="#FBB223"></path>
                    <path d="M473.540687,59.1733333 C473.540687,77.7653333 468.896411,92.2186667 459.607859,102.533333 C449.372971,113.235759 434.954446,118.891874 420.180354,118 C402.956573,118 389.727047,112.881778 380.491775,102.645333 C371.256504,92.4088889 366.638868,77.8648889 366.638868,59.0133333 C366.638868,40.1688889 371.281368,25.6888889 380.566368,15.5733333 C389.851367,5.45777778 403.107534,0.405333333 420.334867,0.416 C435.068251,-0.479707718 449.451007,5.14806742 459.671796,15.808 C468.917723,26.0728889 473.540687,40.528 473.540687,59.1733333 L473.540687,59.1733333 Z M386.437869,59.1733333 C385.662306,70.4905274 388.660625,81.7453934 394.962735,91.1733333 C401.48804,98.1028861 410.57373,102.040404 420.087016,102.061588 C429.600303,102.082772 438.703403,98.1857567 445.259444,91.2853333 C450.903616,84.0995556 453.727478,73.3955556 453.73103,59.1733333 C454.504651,47.9136319 451.555815,36.7119174 445.339365,27.296 C439.25724,19.8281354 429.932605,15.7796024 420.329539,16.4373333 C410.635165,15.7806831 401.214566,19.8192591 395.000031,27.296 C388.675279,36.6690384 385.66158,47.8891845 386.437869,59.1733333 L386.437869,59.1733333 Z" id="Shape" fill="#FBB223"></path>
                    <path d="M581.588035,36.752 C582.217031,47.2316675 577.873065,57.3947859 569.866344,64.176 C560.188361,71.1061364 548.414141,74.4732716 536.539446,73.7066667 L524.673899,73.7066667 L524.673899,116.442667 L506.025754,116.442667 L506.025754,2.21866667 L538.883784,2.21866667 C553.141623,2.21866667 563.822569,5.136 570.926624,10.9706667 C578.306188,17.4272885 582.249702,26.9634618 581.588035,36.752 L581.588035,36.752 Z M524.689883,58 L534.600039,58 C541.972612,58.5706543 549.339282,56.8236438 555.672442,53.0026667 C560.354322,49.2257091 562.867529,43.375702 562.385774,37.376 C562.806194,31.8056058 560.579065,26.362693 556.375744,22.688 C550.846871,19.0247162 544.251883,17.3198818 537.642351,17.8453333 L524.684555,17.8453333 L524.689883,58 Z" id="Shape" fill="#D91C4B"></path>
                    <polygon id="Shape" fill="#D91C4B" points="596.384005 116.437333 596.384005 2.21866667 615.03215 2.21866667 615.03215 116.437333"></polygon>
                    <polygon id="Shape" fill="#D91C4B" points="701.71938 116.437333 637.170161 116.437333 637.170161 2.21866667 701.714052 2.21866667 701.714052 18 655.823633 18 655.823633 49.0933333 698.826254 49.0933333 698.826254 64.72 655.823633 64.72 655.823633 100.581333 701.714052 100.581333"></polygon>
                </g>
            </g>
        </g>
    </g>
</svg>